<?xml version="1.0" standalone="no"?>
<!DOCTYPE svg PUBLIC "-//W3C//DTD SVG 20010904//EN"
 "http://www.w3.org/TR/2001/REC-SVG-20010904/DTD/svg10.dtd">
<svg version="1.0" xmlns="http://www.w3.org/2000/svg"
 width="500.000000pt" height="500.000000pt" viewBox="0 0 500.000000 500.000000"
 preserveAspectRatio="xMidYMid meet">

<g transform="translate(0.000000,500.000000) scale(0.100000,-0.100000)"
fill="#000000" stroke="none">
<path d="M0 2500 l0 -2500 2500 0 2500 0 0 2500 0 2500 -2500 0 -2500 0 0
-2500z m1739 484 c70 -14 100 -78 67 -143 -21 -40 -83 -91 -111 -91 -31 0 -38
12 -25 45 14 36 -1 61 -46 75 -147 49 -424 -112 -424 -246 0 -67 77 -145 233
-234 l107 -61 118 47 c64 26 122 51 128 56 7 5 17 39 24 76 32 173 107 206
118 53 2 -39 8 -71 13 -71 5 0 60 20 124 45 232 91 365 100 365 25 0 -35 -117
-88 -159 -72 -25 9 -122 -13 -266 -60 -91 -30 -91 -30 -99 -80 -4 -23 -15 -60
-25 -83 -15 -34 -16 -52 -9 -119 15 -145 65 -210 162 -211 71 0 107 27 129 99
31 97 88 136 102 70 3 -13 7 -36 10 -50 7 -33 46 -71 80 -80 49 -12 88 17 126
93 19 37 38 71 43 75 17 12 36 -4 36 -31 1 -44 36 -109 72 -131 22 -13 51 -20
87 -20 50 0 56 3 85 37 72 85 157 162 191 173 51 17 65 0 28 -34 -15 -14 -31
-26 -35 -26 -13 0 -38 -58 -38 -88 0 -43 35 -82 73 -82 52 0 55 6 43 104 -11
104 5 343 30 441 36 140 82 231 128 248 47 18 86 -54 86 -157 0 -79 -49 -334
-84 -439 l-34 -102 19 -37 c31 -61 72 -83 157 -83 l72 -1 0 51 c0 28 7 74 15
102 16 53 48 103 60 92 3 -4 10 -34 15 -67 15 -109 60 -162 137 -162 47 0 100
20 127 48 9 9 31 39 49 67 21 31 49 57 74 70 24 11 44 29 47 42 10 35 50 57
92 50 52 -9 82 -32 107 -83 20 -43 23 -45 54 -39 25 4 33 2 33 -9 0 -19 -46
-73 -68 -81 -9 -3 -26 -24 -36 -48 -29 -62 -132 -163 -183 -177 -77 -23 -144
6 -166 72 l-13 37 -44 -36 c-126 -100 -242 -97 -285 9 l-19 44 -33 -37 c-64
-71 -170 -100 -232 -63 -15 9 -37 31 -50 50 l-24 34 -31 -31 c-59 -59 -163
-87 -217 -59 -22 12 -49 61 -49 90 0 11 -3 20 -6 20 -3 0 -28 -20 -55 -44 -61
-55 -124 -81 -175 -72 -41 8 -81 43 -88 78 -3 12 -7 35 -10 50 l-6 27 -51 -54
c-60 -63 -101 -85 -162 -85 -51 0 -91 26 -101 64 l-6 25 -33 -30 c-40 -38
-110 -74 -159 -83 -68 -12 -134 32 -157 106 l-12 37 -47 -28 c-157 -92 -458
-172 -657 -174 -167 -2 -257 35 -274 113 -10 47 7 78 70 129 l52 41 91 -49
c127 -69 227 -101 316 -101 100 0 150 31 185 114 42 99 -16 171 -225 280 -152
80 -221 136 -246 201 -31 83 -3 163 96 268 161 173 446 301 599 271z m1824
-546 c34 -18 46 -39 47 -81 0 -90 -106 -119 -148 -40 -20 37 -14 73 17 104 32
31 50 35 84 17z m-2286 -929 c15 -5 31 -16 35 -22 12 -18 9 -95 -3 -103 -11
-6 -8 -51 6 -86 5 -12 2 -18 -7 -18 -9 0 -20 17 -27 40 -11 37 -15 40 -46 40
-34 0 -35 -1 -35 -40 0 -22 -4 -40 -10 -40 -6 0 -10 47 -10 120 l0 120 34 0
c19 0 47 -5 63 -11z m233 -4 c0 -11 -12 -15 -45 -15 -45 0 -45 0 -45 -35 0
-32 2 -35 31 -35 38 0 35 -24 -4 -28 -25 -3 -27 -7 -27 -48 l0 -44 45 0 c25 0
45 -4 45 -10 0 -5 -25 -10 -55 -10 l-55 0 0 120 0 120 55 0 c42 0 55 -3 55
-15z m203 -16 c13 -16 17 -40 17 -95 0 -94 -16 -114 -90 -114 l-50 0 0 121 0
122 53 -6 c36 -5 57 -13 70 -28z m215 14 c2 -9 -10 -13 -42 -13 -46 0 -46 0
-46 -35 0 -32 2 -35 31 -35 38 0 35 -24 -4 -28 -25 -3 -27 -7 -27 -48 l0 -44
45 0 c25 0 45 -4 45 -10 0 -5 -25 -10 -55 -10 l-55 0 0 121 0 120 52 -3 c30
-2 53 -8 56 -15z m190 0 c2 -9 -10 -13 -42 -13 -46 0 -46 0 -46 -35 0 -31 3
-35 26 -35 31 0 28 -23 -4 -28 -20 -3 -22 -10 -22 -58 0 -30 -4 -54 -10 -54
-6 0 -10 47 -10 121 l0 120 52 -3 c30 -2 53 -8 56 -15z m112 -103 c0 -73 -4
-120 -10 -120 -6 0 -10 42 -10 105 0 63 -4 105 -10 105 -5 0 -10 7 -10 15 0 8
9 15 20 15 19 0 20 -7 20 -120z m170 24 l55 -89 3 93 c4 137 22 114 22 -29 0
-92 -3 -120 -12 -117 -7 3 -38 44 -68 93 l-55 88 -3 -92 c-4 -136 -22 -112
-22 30 0 90 3 120 12 117 7 -3 37 -45 68 -94z m280 81 c0 -11 -11 -15 -40 -15
-39 0 -40 -1 -40 -35 0 -31 3 -35 26 -35 31 0 28 -23 -4 -28 -19 -3 -22 -10
-22 -48 l0 -44 40 0 c22 0 40 -4 40 -10 0 -5 -25 -10 -55 -10 l-55 0 0 113 c0
63 3 117 7 120 3 4 28 7 55 7 36 0 48 -4 48 -15z m263 -79 c16 -48 33 -84 38
-79 4 4 21 44 36 88 15 44 33 80 38 80 6 0 11 -48 13 -117 2 -101 0 -118 -13
-118 -12 0 -15 14 -16 68 l-1 67 -22 -65 c-13 -36 -29 -66 -37 -68 -10 -2 -23
21 -41 75 l-26 78 -1 -77 c-1 -45 -5 -78 -11 -78 -6 0 -10 47 -10 121 0 146
11 151 53 25z m237 -4 c0 -104 7 -122 46 -122 35 0 43 21 46 121 4 127 23 115
23 -14 0 -110 -9 -127 -70 -127 -59 0 -70 18 -74 119 -3 94 1 121 19 121 6 0
10 -37 10 -98z m310 88 c13 -8 13 -10 0 -14 -8 -3 -31 -7 -50 -8 -27 -2 -36
-8 -38 -25 -3 -17 7 -26 52 -46 60 -28 80 -54 70 -92 -8 -32 -32 -45 -80 -45
-38 0 -74 22 -74 47 0 19 14 16 35 -7 20 -22 46 -25 76 -10 40 22 17 64 -49
90 -44 17 -67 52 -53 79 20 37 76 53 111 31z m158 -112 c2 -101 0 -118 -13
-118 -12 0 -15 17 -15 105 0 63 -4 105 -10 105 -5 0 -10 7 -10 16 0 10 7 14
23 12 21 -3 22 -7 25 -120z m176 116 c27 -10 18 -24 -17 -24 -48 0 -57 -15
-57 -96 0 -81 11 -98 59 -92 17 1 32 -2 33 -7 2 -6 -17 -11 -42 -13 -61 -5
-70 10 -70 119 0 79 2 89 22 103 24 17 46 20 72 10z"/>
<path d="M3190 2625 c-26 -31 -50 -157 -50 -261 0 -124 18 -260 33 -245 5 5
23 61 39 123 58 219 44 462 -22 383z"/>
<path d="M1692 2313 l-83 -36 29 -31 c41 -43 54 -71 54 -121 0 -57 -23 -97
-101 -179 l-66 -69 40 7 c22 4 76 24 121 45 l81 39 7 153 c4 85 9 171 13 192
3 20 2 37 -3 36 -5 0 -46 -16 -92 -36z"/>
<path d="M3946 2095 c-19 -50 5 -134 43 -155 35 -18 86 -12 109 13 29 31 28
37 -7 37 -38 0 -92 38 -113 78 -21 44 -24 46 -32 27z"/>
<path d="M1200 1434 l0 -55 42 3 c36 3 43 7 51 31 6 19 6 37 -2 53 -9 20 -18
24 -51 24 l-40 0 0 -56z"/>
<path d="M1610 1395 l0 -95 26 0 c54 0 64 14 64 93 0 82 -9 97 -57 97 l-33 0
0 -95z"/>
</g>
</svg>
